<svg width="82" height="83" viewBox="0 0 82 83" fill="none" xmlns="http://www.w3.org/2000/svg">
<g clip-path="url(#clip0_3470_10155)">
<path d="M18.014 34.6739C18.0144 34.673 18.0146 34.6725 18.0146 34.6717C18.0424 34.5759 18.0743 34.4816 18.1109 34.3893C18.129 34.3439 18.151 34.3013 18.1709 34.2575C18.1906 34.2143 18.2084 34.1704 18.23 34.1282C18.2611 34.0678 18.296 34.0104 18.3308 33.9529C18.3455 33.9284 18.3588 33.9029 18.3742 33.8788C18.4084 33.8257 18.4462 33.7751 18.4839 33.7243C18.5038 33.6974 18.5223 33.6689 18.543 33.6426C18.5766 33.6003 18.6131 33.5609 18.6485 33.5209C18.6775 33.488 18.7057 33.4542 18.736 33.4226C18.7656 33.3921 18.7971 33.3644 18.8279 33.3354C18.868 33.2973 18.9073 33.2585 18.9497 33.2227C18.9738 33.2023 18.9996 33.1843 19.0239 33.1649C19.0751 33.1242 19.1263 33.0833 19.1802 33.0458C19.201 33.0313 19.2234 33.0191 19.2449 33.005C19.3037 32.9664 19.3624 32.9281 19.4245 32.8935C19.4586 32.8746 19.4948 32.8588 19.5297 32.8412C19.5801 32.8157 19.6292 32.7888 19.6817 32.766C19.7721 32.7263 19.8652 32.6915 19.9593 32.661C19.9602 32.6608 19.9612 32.6602 19.962 32.66C19.9737 32.6561 19.9849 32.6544 19.9967 32.6506C20.0787 32.6251 20.1617 32.6024 20.2459 32.5841C20.277 32.5773 20.3083 32.5737 20.3396 32.5678C20.4039 32.556 20.4681 32.5442 20.5335 32.5365C20.5772 32.5315 20.621 32.53 20.665 32.5268C20.7173 32.5231 20.7692 32.5185 20.8223 32.5175C20.8772 32.5165 20.9317 32.5197 20.9859 32.5218C21.028 32.5233 21.0695 32.5233 21.1117 32.5266C21.1794 32.5322 21.2466 32.5422 21.3138 32.5525C21.3427 32.5568 21.3714 32.5592 21.4008 32.5644C21.49 32.5805 21.5775 32.6014 21.6646 32.6256C21.6723 32.6276 21.68 32.6285 21.6875 32.6309L21.6913 32.632C21.6966 32.6333 21.7014 32.6348 21.7065 32.636L38.5252 37.4333C40.1037 37.8834 41.0184 39.5281 40.5681 41.1067C40.3431 41.8961 39.8193 42.5191 39.1545 42.8889C38.4899 43.2585 37.6838 43.3746 36.895 43.1494L26.4301 40.1647C31.7293 47.9416 41.7184 51.6722 51.1161 48.6496C57.9954 46.4369 63.3201 40.9698 65.3592 34.0255C65.8219 32.4502 67.4734 31.5486 69.0483 32.011C70.6234 32.4733 71.525 34.125 71.0628 35.7C68.9866 42.7705 64.2337 48.6368 57.9304 52.1421C56.3568 53.017 54.6854 53.7456 52.9361 54.3084C41.0336 58.1368 28.4006 53.4631 21.6285 43.6746L18.9282 53.1409C18.4782 54.7194 16.8335 55.6341 15.2549 55.1838C13.6762 54.7336 12.7617 53.0891 13.212 51.5105L18.014 34.6739Z" fill="#03632C"/>
</g>
<defs>
<clipPath id="clip0_3470_10155">
<rect width="60" height="60" fill="white" transform="matrix(-0.87394 0.486034 0.486034 0.87394 52.502 0.5)"/>
</clipPath>
</defs>
</svg>
