<svg width="66" height="66" viewBox="0 0 66 66" fill="none" xmlns="http://www.w3.org/2000/svg">
<circle cx="33" cy="33" r="33" fill="#C0D5FB"/>
<path d="M37.625 21.6934H32.375C32.201 21.6934 32.034 21.6292 31.911 21.5149C31.7879 21.4006 31.7188 21.2456 31.7188 21.084V18.6465C31.7188 18.4849 31.7879 18.3299 31.911 18.2156C32.034 18.1013 32.201 18.0371 32.375 18.0371H37.625C37.799 18.0371 37.966 18.1013 38.089 18.2156C38.2121 18.3299 38.2812 18.4849 38.2812 18.6465V21.084C38.2812 21.2456 38.2121 21.4006 38.089 21.5149C37.966 21.6292 37.799 21.6934 37.625 21.6934ZM33.0312 20.4746H36.9688V19.2559H33.0312V20.4746Z" fill="white"/>
<path d="M37.625 27.7877C37.6244 28.2724 37.4168 28.7371 37.0477 29.0798C36.6786 29.4225 36.1782 29.6153 35.6562 29.6158H34.3438C33.8218 29.6153 33.3214 29.4225 32.9523 29.0798C32.5832 28.7371 32.3756 28.2724 32.375 27.7877H29.75C28.8105 27.788 27.8938 27.5191 27.125 27.0176V33.2721C27.125 33.4337 27.1941 33.5887 27.3172 33.703C27.4403 33.8173 27.6072 33.8815 27.7812 33.8815H42.2188C42.3928 33.8815 42.5597 33.8173 42.6828 33.703C42.8059 33.5887 42.875 33.4337 42.875 33.2721V27.0176C42.1062 27.519 41.1895 27.788 40.25 27.7877H37.625Z" fill="white"/>
<path d="M42.875 20.4746H27.125C26.951 20.4746 26.784 20.5388 26.661 20.6531C26.5379 20.7674 26.4688 20.9224 26.4688 21.084V23.5215C26.4698 24.3293 26.8158 25.1037 27.4309 25.6749C28.0461 26.2461 28.8801 26.5674 29.75 26.5684H32.375C32.3756 26.0837 32.5832 25.619 32.9523 25.2763C33.3214 24.9335 33.8218 24.7408 34.3438 24.7402H35.6562C36.1782 24.7408 36.6786 24.9335 37.0477 25.2763C37.4168 25.619 37.6244 26.0837 37.625 26.5684H40.25C41.1199 26.5674 41.9539 26.2461 42.5691 25.6749C43.1842 25.1037 43.5302 24.3293 43.5312 23.5215V21.084C43.5312 20.9224 43.4621 20.7674 43.339 20.6531C43.216 20.5388 43.049 20.4746 42.875 20.4746Z" fill="white"/>
<path d="M35.6562 25.959H34.3438C33.9813 25.959 33.6875 26.2318 33.6875 26.5684V27.7871C33.6875 28.1237 33.9813 28.3965 34.3438 28.3965H35.6562C36.0187 28.3965 36.3125 28.1237 36.3125 27.7871V26.5684C36.3125 26.2318 36.0187 25.959 35.6562 25.959Z" fill="white"/>
<path d="M22.5312 36.1562H17.2812C16.9188 36.1562 16.625 36.4291 16.625 36.7656V48.9531C16.625 49.2897 16.9188 49.5625 17.2812 49.5625H22.5312C22.8937 49.5625 23.1875 49.2897 23.1875 48.9531V36.7656C23.1875 36.4291 22.8937 36.1562 22.5312 36.1562Z" fill="#6DB20D"/>
<path d="M52.6643 32.8051C51.9713 32.1592 51.0455 31.7742 50.0652 31.7243C49.0848 31.6744 48.1192 31.963 47.3544 32.5346L40.7558 37.4362C41.4191 37.9499 41.9527 38.5926 42.3189 39.3189C42.6851 40.0452 42.8749 40.8373 42.875 41.6393C42.874 42.447 42.5279 43.2215 41.9128 43.7927C41.2977 44.3639 40.4637 44.6852 39.5938 44.6861H31.7188C31.5447 44.6861 31.3778 44.6219 31.2547 44.5077C31.1316 44.3934 31.0625 44.2384 31.0625 44.0768C31.0625 43.9151 31.1316 43.7601 31.2547 43.6459C31.3778 43.5316 31.5447 43.4674 31.7188 43.4674H39.5938C40.1157 43.4669 40.6161 43.2741 40.9852 42.9314C41.3543 42.5886 41.5619 42.1239 41.5625 41.6393C41.5619 40.963 41.3878 40.2966 41.0548 39.6952C40.7217 39.0937 40.2392 38.5746 39.6472 38.1808C39.4838 38.0696 39.3125 37.969 39.1344 37.8794C39.0832 37.8539 39.0294 37.8327 38.9769 37.809C38.8328 37.7434 38.6851 37.6852 38.5342 37.6344C38.4788 37.6157 38.4246 37.5947 38.3683 37.5778C38.1763 37.5215 37.9804 37.4771 37.7821 37.4448C37.729 37.436 37.6752 37.4291 37.6215 37.422C37.4054 37.3917 37.1873 37.3755 36.9688 37.3736H33.215C31.5454 36.5435 29.6748 36.1239 27.7812 36.1549C26.6726 36.1518 25.5687 36.2892 24.5 36.5632V48.3424H38.5044C39.3522 48.3426 40.1901 48.1731 40.961 47.8454C41.732 47.5177 42.4177 47.0395 42.9716 46.4434L52.7896 35.8883C53.1892 35.4535 53.3981 34.8952 53.3749 34.324C53.3517 33.7528 53.0981 33.2106 52.6643 32.8051Z" fill="#6DB20D"/>
</svg>
