<svg width="66" height="66" viewBox="0 0 66 66" fill="none" xmlns="http://www.w3.org/2000/svg">
<circle cx="33" cy="33" r="33" fill="#C0D5FB"/>
<g clip-path="url(#clip0_2826_2130)">
<path d="M16.4051 26.1476L18.0586 24.9277V30.3498L16 29.3252V26.9491C16 26.633 16.1501 26.3355 16.4051 26.1476Z" fill="#6DB20D"/>
<path d="M50 26.9491V29.3252L47.9414 30.3498V24.9277L49.5949 26.1476C49.8499 26.3355 50 26.633 50 26.9491Z" fill="#6DB20D"/>
<path d="M50 31.5508V47.0042C50 47.554 49.5537 48.0003 49.0039 48.0003H16.9961C16.4463 48.0003 16 47.554 16 47.0042V31.5508C16.9989 32.0482 31.5813 39.3092 32.5557 39.7945C32.6959 39.8642 32.8479 39.8987 33 39.8987C33.1521 39.8987 33.3041 39.8642 33.4443 39.7945C34.3919 39.3226 49.7767 31.6619 50 31.5508Z" fill="#6DB20D"/>
<path d="M35.9883 15.9922H30.0117L32.4023 14.1992C32.7563 13.9336 33.2437 13.9336 33.5977 14.1992L35.9883 15.9922Z" fill="#6DB20D"/>
<path d="M44.9531 17.9844H21.0469C20.497 17.9844 20.0508 18.4306 20.0508 18.9805V31.342L33 37.79L45.9492 31.342V18.9805C45.9492 18.4306 45.503 17.9844 44.9531 17.9844ZM33 29.9375H27.0234C26.4736 29.9375 26.0273 29.4913 26.0273 28.9414C26.0273 28.3916 26.4736 27.9453 27.0234 27.9453H33C33.5498 27.9453 33.9961 28.3916 33.9961 28.9414C33.9961 29.4913 33.5498 29.9375 33 29.9375ZM38.9766 25.9531H27.0234C26.4736 25.9531 26.0273 25.5069 26.0273 24.957C26.0273 24.4072 26.4736 23.9609 27.0234 23.9609H38.9766C39.5264 23.9609 39.9727 24.4072 39.9727 24.957C39.9727 25.5069 39.5264 25.9531 38.9766 25.9531Z" fill="white"/>
</g>
<defs>
<clipPath id="clip0_2826_2130">
<rect width="34" height="34" fill="white" transform="translate(16 14)"/>
</clipPath>
</defs>
</svg>
