<svg width="174" height="174" viewBox="0 0 174 174" fill="none" xmlns="http://www.w3.org/2000/svg">
<g filter="url(#filter0_d_3190_9081)">
<rect x="25" y="19" width="124" height="124" rx="62" fill="white"/>
<g clip-path="url(#clip0_3190_9081)">
<path d="M67.6569 57.7073C66.3982 58.3314 65.355 59.3442 64.6254 60.5904C63.8956 61.8367 63.477 63.3211 63.4766 64.9069C63.4766 65.5088 63.9651 65.9977 64.568 65.9977C65.1704 65.9977 65.6585 65.5086 65.6585 64.9069C65.6585 63.7079 65.9763 62.6016 66.5082 61.6929C67.0402 60.7842 67.7839 60.0792 68.625 59.6625C69.1646 59.3953 69.386 58.7404 69.1188 58.2012C68.851 57.6601 68.1965 57.4402 67.6569 57.7073Z" fill="#67BC2A"/>
<path d="M76.3917 52.1176C74.8248 51.3846 73.091 50.9766 71.2771 50.9766C69.4638 50.9766 67.73 51.3846 66.1626 52.1176C63.8107 53.2172 61.8317 55.0421 60.4409 57.3165C59.05 59.5929 58.2441 62.3255 58.2441 65.2539C58.2441 68.4128 59.1816 71.343 60.78 73.7188C62.2128 75.8475 64.1819 77.5346 66.4877 78.5329V86.3487H66.3488C65.6929 86.3487 65.1614 86.8801 65.1614 87.536V103.534V103.539C65.1614 106.917 67.8998 109.654 71.2771 109.654C74.6546 109.654 77.3929 106.917 77.3929 103.539V87.5359C77.3929 86.8801 76.8615 86.3486 76.2061 86.3486H76.0666V78.5327C78.3724 77.5345 80.3421 75.8474 81.7745 73.7187C83.3727 71.3429 84.3102 68.4127 84.3102 65.2537C84.3097 61.3482 82.8788 57.7938 80.535 55.2021C79.3626 53.9068 77.9595 52.8506 76.3917 52.1176ZM71.2771 104.289C70.3844 104.289 69.661 103.566 69.661 102.674C69.661 101.781 70.3844 101.057 71.2771 101.057C72.1699 101.057 72.8933 101.781 72.8933 102.674C72.8933 103.566 72.1699 104.289 71.2771 104.289ZM71.2771 92.976C70.3844 92.976 69.661 92.2516 69.661 91.3594C69.661 90.4662 70.3844 89.7428 71.2771 89.7428C72.1699 89.7428 72.8933 90.4662 72.8933 91.3594C72.8933 92.2516 72.1699 92.976 71.2771 92.976ZM79.7628 72.3655C78.4341 74.3399 76.5768 75.8204 74.4534 76.5652L73.6422 76.8488V86.3487H68.9121V76.8488L68.1009 76.5652C65.9775 75.8205 64.1202 74.34 62.7915 72.3655C61.4628 70.391 60.6685 67.9324 60.6685 65.2539C60.668 61.9434 61.8834 58.9659 63.8173 56.8284C64.7844 55.7597 65.9287 54.9033 67.1894 54.3138C68.4506 53.7245 69.8265 53.4014 71.2771 53.4004C72.7279 53.4013 74.1037 53.7245 75.3649 54.3138C77.2555 55.1964 78.8864 56.6857 80.0449 58.581C81.2033 60.4762 81.8857 62.771 81.8857 65.2537C81.8858 67.9324 81.0915 70.391 79.7628 72.3655Z" fill="#67BC2A"/>
<path d="M114.498 53.0087C113.724 52.2333 112.642 51.7492 111.459 51.75C110.275 51.7491 109.193 52.2333 108.419 53.0087C107.644 53.7833 107.16 54.8646 107.162 56.0481V68.8314C107.16 69.3377 107.059 69.7379 106.9 70.0747C106.782 70.3264 106.627 70.5444 106.448 70.7344C106.269 70.9254 106.058 71.0836 105.838 71.2129V56.0481C105.839 54.8646 105.356 53.7833 104.581 53.0087C103.806 52.2333 102.724 51.7492 101.541 51.75C100.358 51.7491 99.276 52.2333 98.502 53.0087C97.7259 53.7833 97.2427 54.8646 97.2432 56.0481V71.2147C96.9514 71.0429 96.6775 70.8144 96.4634 70.5347C96.3018 70.3254 96.1692 70.0872 96.0742 69.8093C95.9791 69.5316 95.9208 69.2113 95.9208 68.8313V56.0481C95.9213 54.8646 95.438 53.7833 94.6621 53.0087C93.888 52.2333 92.8058 51.7492 91.6232 51.75C90.4402 51.7491 89.3579 52.2333 88.5839 53.0087C87.8084 53.7833 87.3246 54.8646 87.3252 56.0481V69.5653C87.3247 71.2195 87.6353 72.7069 88.1841 74.0071C88.5954 74.9822 89.138 75.8514 89.7688 76.6152C90.716 77.7621 91.858 78.6717 93.0667 79.3864C94.1889 80.049 95.3695 80.5439 96.527 80.9066V87.6816C95.9121 87.726 95.4254 88.2333 95.4254 88.8593V104.858L95.425 104.863C95.425 108.241 98.1633 110.978 101.541 110.978C104.918 110.978 107.656 108.241 107.656 104.863V88.8593C107.656 88.2333 107.169 87.726 106.554 87.6816V80.9075C107.573 80.5874 108.61 80.1659 109.61 79.6171C111.239 78.7219 112.776 77.4864 113.912 75.8167C114.481 74.9823 114.944 74.0411 115.262 72.9974C115.582 71.9527 115.756 70.8069 115.756 69.5654V56.0481C115.758 54.8646 115.274 53.7833 114.498 53.0087ZM101.541 105.614C100.648 105.614 99.9246 104.89 99.9246 103.997C99.9246 103.105 100.648 102.381 101.541 102.381C102.433 102.381 103.157 103.105 103.157 103.997C103.157 104.89 102.433 105.614 101.541 105.614ZM101.541 94.2994C100.648 94.2994 99.9246 93.576 99.9246 92.6838C99.9246 91.7906 100.648 91.0672 101.541 91.0672C102.433 91.0672 103.157 91.7906 103.157 92.6838C103.157 93.5759 102.433 94.2994 101.541 94.2994ZM113.332 69.5653C113.331 70.9195 113.083 72.0683 112.663 73.0657C112.348 73.8122 111.934 74.4758 111.443 75.072C110.707 75.9642 109.791 76.703 108.782 77.2991C107.773 77.8952 106.675 78.3457 105.595 78.6659C105.589 78.6679 105.568 78.6736 105.54 78.6813C105.483 78.6977 105.402 78.7219 105.306 78.7566C105.233 78.7835 105.15 78.8154 105.058 78.8598C104.92 78.9292 104.756 79.0151 104.563 79.2032C104.467 79.2986 104.362 79.4241 104.277 79.5957C104.191 79.7674 104.129 79.9902 104.131 80.2179C104.131 80.5488 104.131 80.7311 104.131 80.7311V87.6729H98.9515V80.7311C98.9515 80.7311 98.9515 80.5488 98.9515 80.2179C98.9529 79.9787 98.8849 79.7463 98.7922 79.5717C98.7112 79.4174 98.6173 79.3025 98.5289 79.2129C98.3732 79.0576 98.2348 78.9737 98.1157 78.9072C97.9372 78.8107 97.792 78.7605 97.6778 78.7229C97.6204 78.7047 97.5717 78.6901 97.535 78.6796L97.4921 78.6681L97.4864 78.6661C96.5271 78.3825 95.552 77.9938 94.6395 77.4922C93.2684 76.7389 92.0463 75.7377 91.1739 74.453C90.7369 73.8105 90.3838 73.0949 90.1369 72.2885C89.891 71.4812 89.7502 70.5813 89.7497 69.5655V56.0481C89.7506 55.5263 89.9575 55.0662 90.2985 54.7238C90.6414 54.3823 91.1019 54.1759 91.6233 54.1748C92.1446 54.1758 92.6053 54.3823 92.9477 54.7238C93.2888 55.0662 93.4961 55.5263 93.4965 56.0481V68.8314C93.4956 69.6754 93.6764 70.448 93.9889 71.1086C94.2229 71.6054 94.5285 72.0375 94.8738 72.4021C95.3932 72.949 95.9985 73.3454 96.6154 73.6097C97.2336 73.8739 97.8635 74.0109 98.4775 74.0128H99.7945L99.6855 72.7001C99.673 72.5525 99.6673 72.4281 99.6677 72.3566V56.0481C99.6682 55.5263 99.8755 55.0662 100.216 54.7238C100.559 54.3823 101.019 54.1759 101.541 54.1748C102.062 54.1758 102.523 54.3823 102.866 54.7238C103.207 55.0662 103.413 55.5263 103.414 56.0481V72.3567C103.414 72.4282 103.409 72.5527 103.396 72.7002L103.288 74.0129H104.604C105.151 74.0109 105.708 73.9021 106.261 73.6936C107.085 73.3801 107.905 72.8341 108.539 72.0143C108.855 71.6054 109.119 71.1288 109.302 70.5926C109.485 70.0573 109.586 69.4641 109.586 68.8313V56.0481C109.587 55.5263 109.793 55.0662 110.135 54.7238C110.477 54.3823 110.937 54.1759 111.459 54.1748C111.981 54.1758 112.441 54.3823 112.783 54.7238C113.125 55.0662 113.331 55.5263 113.332 56.0481V69.5653H113.332Z" fill="#67BC2A"/>
</g>
</g>
<defs>
<filter id="filter0_d_3190_9081" x="0" y="0" width="174" height="174" filterUnits="userSpaceOnUse" color-interpolation-filters="sRGB">
<feFlood flood-opacity="0" result="BackgroundImageFix"/>
<feColorMatrix in="SourceAlpha" type="matrix" values="0 0 0 0 0 0 0 0 0 0 0 0 0 0 0 0 0 0 127 0" result="hardAlpha"/>
<feOffset dy="6"/>
<feGaussianBlur stdDeviation="12.5"/>
<feComposite in2="hardAlpha" operator="out"/>
<feColorMatrix type="matrix" values="0 0 0 0 0.117647 0 0 0 0 0.843137 0 0 0 0 0.376471 0 0 0 0.08 0"/>
<feBlend mode="normal" in2="BackgroundImageFix" result="effect1_dropShadow_3190_9081"/>
<feBlend mode="normal" in="SourceGraphic" in2="effect1_dropShadow_3190_9081" result="shape"/>
</filter>
<clipPath id="clip0_3190_9081">
<rect width="60" height="60" fill="white" transform="translate(57 51)"/>
</clipPath>
</defs>
</svg>
