<svg width="50" height="50" viewBox="0 0 50 50" fill="none" xmlns="http://www.w3.org/2000/svg">
<rect width="50" height="50" rx="25" fill="#7CB342"/>
<path d="M25 15L25.7452 21.2537L28.8268 15.7612L27.1221 21.8241L32.0711 17.9289L28.1759 22.8779L34.2388 21.1732L28.7463 24.2548L35 25L28.7463 25.7452L34.2388 28.8268L28.1759 27.1221L32.0711 32.0711L27.1221 28.1759L28.8268 34.2388L25.7452 28.7463L25 35L24.2548 28.7463L21.1732 34.2388L22.8779 28.1759L17.9289 32.0711L21.8241 27.1221L15.7612 28.8268L21.2537 25.7452L15 25L21.2537 24.2548L15.7612 21.1732L21.8241 22.8779L17.9289 17.9289L22.8779 21.8241L21.1732 15.7612L24.2548 21.2537L25 15Z" fill="white"/>
</svg>
