<svg width="174" height="174" viewBox="0 0 174 174" fill="none" xmlns="http://www.w3.org/2000/svg">
<g filter="url(#filter0_d_3190_9098)">
<rect x="25" y="19" width="124" height="124" rx="62" fill="white"/>
<g clip-path="url(#clip0_3190_9098)">
<path d="M111.375 50.9766H62.625C61.1332 50.9766 59.7024 51.5692 58.6475 52.6241C57.5926 53.679 57 55.1097 57 56.6016V97.8516C57 99.3434 57.5926 100.774 58.6475 101.829C59.7024 102.884 61.1332 103.477 62.625 103.477H68.25C68.7473 103.477 69.2242 103.279 69.5758 102.927C69.9275 102.576 70.125 102.099 70.125 101.602C70.125 101.104 69.9275 100.627 69.5758 100.276C69.2242 99.9241 68.7473 99.7266 68.25 99.7266H62.625C62.1277 99.7266 61.6508 99.529 61.2992 99.1774C60.9475 98.8258 60.75 98.3488 60.75 97.8516V65.9766H113.25V97.8516C113.25 98.3488 113.052 98.8258 112.701 99.1774C112.349 99.529 111.872 99.7266 111.375 99.7266H103.875C103.378 99.7266 102.901 99.9241 102.549 100.276C102.198 100.627 102 101.104 102 101.602C102 102.099 102.198 102.576 102.549 102.927C102.901 103.279 103.378 103.477 103.875 103.477H111.375C112.867 103.477 114.298 102.884 115.352 101.829C116.407 100.774 117 99.3434 117 97.8516V56.6016C117 55.1097 116.407 53.679 115.352 52.6241C114.298 51.5692 112.867 50.9766 111.375 50.9766ZM60.75 62.2266V56.6016C60.75 56.1043 60.9475 55.6274 61.2992 55.2757C61.6508 54.9241 62.1277 54.7266 62.625 54.7266H111.375C111.872 54.7266 112.349 54.9241 112.701 55.2757C113.052 55.6274 113.25 56.1043 113.25 56.6016V62.2266H60.75Z" fill="#67BC2A"/>
<path d="M107.625 73.4766H103.875C103.378 73.4766 102.901 73.279 102.549 72.9274C102.198 72.5758 102 72.0988 102 71.6016C102 71.1043 102.198 70.6274 102.549 70.2757C102.901 69.9241 103.378 69.7266 103.875 69.7266H107.625C108.122 69.7266 108.599 69.9241 108.951 70.2757C109.302 70.6274 109.5 71.1043 109.5 71.6016C109.5 72.0988 109.302 72.5758 108.951 72.9274C108.599 73.279 108.122 73.4766 107.625 73.4766Z" fill="#67BC2A"/>
<path d="M70.125 80.9766H66.375C65.8777 80.9766 65.4008 80.779 65.0492 80.4274C64.6975 80.0758 64.5 79.5988 64.5 79.1016C64.5 78.6043 64.6975 78.1274 65.0492 77.7757C65.4008 77.4241 65.8777 77.2266 66.375 77.2266H70.125C70.6223 77.2266 71.0992 77.4241 71.4508 77.7757C71.8025 78.1274 72 78.6043 72 79.1016C72 79.5988 71.8025 80.0758 71.4508 80.4274C71.0992 80.779 70.6223 80.9766 70.125 80.9766Z" fill="#67BC2A"/>
<path d="M70.125 73.4766H66.375C65.8777 73.4766 65.4008 73.279 65.0492 72.9274C64.6975 72.5758 64.5 72.0988 64.5 71.6016C64.5 71.1043 64.6975 70.6274 65.0492 70.2757C65.4008 69.9241 65.8777 69.7266 66.375 69.7266H70.125C70.6223 69.7266 71.0992 69.9241 71.4508 70.2757C71.8025 70.6274 72 71.1043 72 71.6016C72 72.0988 71.8025 72.5758 71.4508 72.9274C71.0992 73.279 70.6223 73.4766 70.125 73.4766Z" fill="#67BC2A"/>
<path d="M100.125 93.2391C100.12 90.983 99.2215 88.8206 97.6262 87.2253C96.0309 85.63 93.8686 84.7315 91.6124 84.7266C90.497 84.724 89.3922 84.9432 88.3622 85.3713C87.3321 85.7994 86.3975 86.4279 85.6124 87.2203L76.3687 96.4641C75.1859 97.6544 74.3813 99.1678 74.056 100.814C73.7307 102.46 73.8992 104.166 74.5404 105.717C75.1815 107.267 76.2666 108.594 77.6595 109.53C79.0523 110.466 80.6907 110.969 82.3687 110.977C83.4841 110.979 84.5889 110.76 85.619 110.332C86.649 109.904 87.5837 109.275 88.3687 108.483L92.9812 103.87L97.5937 99.2578C98.3968 98.475 99.0347 97.5389 99.4695 96.5051C99.9043 95.4712 100.127 94.3606 100.125 93.2391ZM85.7437 105.839C85.3034 106.28 84.7802 106.63 84.2042 106.868C83.6282 107.106 83.0107 107.228 82.3874 107.227C81.4488 107.222 80.5324 106.94 79.7534 106.417C78.9743 105.893 78.3674 105.151 78.0088 104.284C77.6502 103.416 77.5559 102.462 77.7378 101.541C77.9197 100.62 78.3697 99.7738 79.0312 99.1078L82.3312 95.8266L89.0437 102.539L85.7437 105.839ZM96.3749 93.2391C96.3699 94.4964 95.8717 95.7015 94.9874 96.5953L91.6874 99.8953L84.9562 93.1641L88.2562 89.8641C88.9233 89.2015 89.7716 88.7512 90.6941 88.5699C91.6167 88.3886 92.5724 88.4844 93.4406 88.8453C94.3088 89.2062 95.0507 89.8161 95.5729 90.598C96.0951 91.3799 96.3742 92.2988 96.3749 93.2391Z" fill="#7AC143" fill-opacity="0.5"/>
</g>
</g>
<defs>
<filter id="filter0_d_3190_9098" x="0" y="0" width="174" height="174" filterUnits="userSpaceOnUse" color-interpolation-filters="sRGB">
<feFlood flood-opacity="0" result="BackgroundImageFix"/>
<feColorMatrix in="SourceAlpha" type="matrix" values="0 0 0 0 0 0 0 0 0 0 0 0 0 0 0 0 0 0 127 0" result="hardAlpha"/>
<feOffset dy="6"/>
<feGaussianBlur stdDeviation="12.5"/>
<feComposite in2="hardAlpha" operator="out"/>
<feColorMatrix type="matrix" values="0 0 0 0 0.117647 0 0 0 0 0.843137 0 0 0 0 0.376471 0 0 0 0.08 0"/>
<feBlend mode="normal" in2="BackgroundImageFix" result="effect1_dropShadow_3190_9098"/>
<feBlend mode="normal" in="SourceGraphic" in2="effect1_dropShadow_3190_9098" result="shape"/>
</filter>
<clipPath id="clip0_3190_9098">
<rect width="60" height="60" fill="white" transform="translate(57 51)"/>
</clipPath>
</defs>
</svg>
